<svg width="62.337" height="92.288" viewBox="0 0 62.337 92.288" xmlns="http://www.w3.org/2000/svg"><g id="svgGroup" stroke-linecap="round" fill-rule="evenodd" font-size="9pt" stroke="#000" stroke-width="0.25" fill="black" style="stroke:#000;stroke-width:0.25;fill:black"><path d="M 31.873 70.016 L 31.873 70.144 A 0.291 0.291 0 0 0 31.94 70.134 Q 32.105 70.092 32.513 69.888 A 4.586 4.586 0 0 1 33.887 69.257 A 4.12 4.12 0 0 1 34.945 69.12 A 2.443 2.443 0 0 1 36.687 69.839 A 3.206 3.206 0 0 1 36.737 69.888 A 1.847 1.847 0 0 1 36.913 70.309 Q 37.121 71.004 37.121 72.32 Q 37.121 75.008 36.993 77.184 Q 36.609 85.376 35.585 88.832 A 10.074 10.074 0 0 1 35.107 90.136 Q 34.453 91.575 33.514 92.052 A 2.18 2.18 0 0 1 32.513 92.288 A 2.513 2.513 0 0 1 31.99 92.239 Q 31.22 92.074 31.12 91.362 A 1.619 1.619 0 0 1 31.105 91.136 A 1.918 1.918 0 0 1 31.152 90.738 Q 31.239 90.336 31.481 89.777 A 11.515 11.515 0 0 1 31.745 89.216 A 5.327 5.327 0 0 0 32.453 87.805 Q 33.153 85.786 33.153 82.176 Q 33.153 80.761 32.805 80.042 A 1.544 1.544 0 0 0 32.513 79.616 Q 32.008 79.364 31.876 79.36 A 0.137 0.137 0 0 0 31.873 79.36 Q 31.434 79.36 29.018 81.713 A 92.201 92.201 0 0 0 28.161 82.56 Q 25.089 85.76 23.425 86.784 Q 21.761 87.808 19.713 87.808 A 4.805 4.805 0 0 1 18.213 87.585 A 3.894 3.894 0 0 1 16.449 86.4 A 4.93 4.93 0 0 1 15.321 83.933 A 6.8 6.8 0 0 1 15.233 82.816 A 14.304 14.304 0 0 1 15.945 78.984 Q 18.743 69.562 32.513 45.184 Q 49.094 15.524 50.549 11.857 A 1.689 1.689 0 0 0 50.689 11.392 Q 50.689 11.058 42.554 11.015 A 491.439 491.439 0 0 0 39.937 11.008 Q 31.391 11.008 25.976 11.269 A 118.155 118.155 0 0 0 23.809 11.392 Q 12.656 12.362 12.065 13.102 A 0.132 0.132 0 0 0 12.033 13.184 A 1.66 1.66 0 0 0 12.066 13.434 Q 12.217 14.258 13.057 17.408 Q 14.044 20.808 14.185 22.235 A 4.332 4.332 0 0 1 14.209 22.656 Q 14.209 23.581 13.686 25.028 A 16.157 16.157 0 0 1 13.569 25.344 A 14.017 14.017 0 0 0 12.869 28.145 Q 12.673 29.476 12.673 30.976 Q 12.56 36.61 10.662 37.88 A 2.146 2.146 0 0 1 10.113 38.144 A 0.761 0.761 0 0 0 10.03 38.149 Q 9.949 38.158 9.837 38.183 A 3.729 3.729 0 0 0 9.729 38.208 Q 9.526 38.259 9.404 38.269 A 0.692 0.692 0 0 1 9.345 38.272 A 2.072 2.072 0 0 1 8.861 38.221 Q 8.065 38.029 8.065 37.12 A 1.918 1.918 0 0 1 8.112 36.722 Q 8.199 36.32 8.441 35.761 A 11.515 11.515 0 0 1 8.705 35.2 Q 9.473 33.92 9.473 32.384 Q 9.473 31.306 9.397 30.453 A 13.78 13.78 0 0 0 9.345 29.952 Q 9.036 27.174 8.314 25.719 A 4.392 4.392 0 0 0 7.937 25.088 Q 7 23.944 6.825 23.392 A 0.752 0.752 0 0 1 6.785 23.168 A 0.949 0.949 0 0 0 6.699 22.821 Q 6.393 22.08 4.993 20.48 A 32.312 32.312 0 0 1 2.648 17.387 Q 0.442 14.048 0.001 11.136 L 0.001 10.24 A 8.734 8.734 0 0 1 0.329 7.77 A 6.201 6.201 0 0 1 3.201 4.096 A 6.731 6.731 0 0 1 4.496 3.552 Q 6.777 2.811 11.794 2.114 A 156.495 156.495 0 0 1 15.361 1.664 Q 24.682 0.589 36.345 0.182 A 370.72 370.72 0 0 1 38.017 0.128 Q 39.937 0 43.521 0 Q 51.969 0 56.001 1.344 Q 60.033 2.688 61.441 5.76 A 5.597 5.597 0 0 1 61.892 6.935 Q 62.224 8.148 62.308 9.961 A 28.166 28.166 0 0 1 62.337 11.264 Q 62.337 16.768 60.801 23.168 Q 59.333 29.561 59.067 32.264 A 10.637 10.637 0 0 0 59.009 33.28 A 12.418 12.418 0 0 0 59.278 35.798 A 16.164 16.164 0 0 0 59.777 37.632 Q 60.545 39.808 60.545 41.088 Q 60.545 42.88 59.009 43.776 Q 58.113 44.416 57.793 44.352 Q 57.473 44.288 56.961 43.648 Q 55.809 42.368 55.809 37.504 Q 55.809 34.816 56.065 33.408 A 1087.606 1087.606 0 0 0 56.367 31.332 Q 57.458 23.793 57.345 23.68 Q 56.267 25.716 51.378 34.309 A 3023.279 3023.279 0 0 1 50.689 35.52 Q 45.185 45.184 40.577 53.568 Q 36.141 61.639 34.077 65.499 A 335.683 335.683 0 0 0 33.921 65.792 Q 31.873 69.376 31.873 70.016 Z" vector-effect="non-scaling-stroke"/></g></svg>
