<svg width="51.84" height="95.361" viewBox="0 0 51.84 95.361" xmlns="http://www.w3.org/2000/svg"><g id="svgGroup" stroke-linecap="round" fill-rule="evenodd" font-size="9pt" stroke="#000" stroke-width="0.25" fill="black" style="stroke:#000;stroke-width:0.25;fill:black"><path d="M 50.688 65.921 L 50.688 67.457 Q 50.688 69.556 49.925 72.133 A 25.703 25.703 0 0 1 49.664 72.961 Q 48.256 77.569 48.256 82.433 Q 48.256 85.238 48.683 86.869 A 7.332 7.332 0 0 0 48.768 87.169 Q 49.28 88.577 49.28 89.729 A 3.24 3.24 0 0 1 49.058 90.967 Q 48.508 92.308 46.592 92.673 A 4.027 4.027 0 0 1 46.088 92.749 Q 44.634 92.872 43.648 91.777 A 5.221 5.221 0 0 1 43.159 91.218 Q 42.634 90.517 42.624 89.88 A 1.57 1.57 0 0 1 42.624 89.857 A 1.01 1.01 0 0 1 42.677 89.563 Q 42.82 89.104 43.352 88.31 A 14.886 14.886 0 0 1 43.52 88.065 A 5.609 5.609 0 0 0 44.255 86.716 A 4.559 4.559 0 0 0 44.544 85.121 Q 44.544 84.879 44.316 81.903 A 1048.734 1048.734 0 0 0 44.288 81.537 A 74.303 74.303 0 0 0 44.002 79.435 Q 43.362 75.226 42.602 74.427 A 0.508 0.508 0 0 0 42.24 74.241 Q 41.984 74.241 35.712 76.801 Q 18.908 83.45 11.352 84.047 A 19.317 19.317 0 0 1 10.496 84.097 Q 7.552 84.225 6.912 84.481 A 0.88 0.88 0 0 0 6.435 84.955 Q 6.28 85.291 6.272 85.835 A 4.033 4.033 0 0 0 6.272 85.889 Q 6.272 86.959 6.494 87.29 A 0.322 0.322 0 0 0 6.656 87.425 Q 7.529 87.799 7.551 91.818 A 38.439 38.439 0 0 1 7.552 92.033 Q 7.552 92.865 7.468 93.19 A 0.639 0.639 0 0 1 7.424 93.313 A 1.299 1.299 0 0 1 7.158 93.893 Q 6.821 94.331 6.08 94.721 A 5.932 5.932 0 0 1 4.955 95.18 A 4.493 4.493 0 0 1 3.712 95.361 A 2.179 2.179 0 0 1 2.928 95.21 A 2.676 2.676 0 0 1 2.688 95.105 A 2.642 2.642 0 0 1 1.916 94.588 Q 1.28 93.961 1.28 92.929 A 2.529 2.529 0 0 1 1.343 92.346 A 1.69 1.69 0 0 1 1.792 91.521 Q 2.56 91.009 2.56 90.113 Q 2.56 88.833 0.512 84.609 Q 0.09 83.765 0.016 80.922 A 50.182 50.182 0 0 1 0 79.617 A 69.62 69.62 0 0 1 0.049 76.895 Q 0.21 72.805 0.896 71.041 A 58.759 58.759 0 0 1 6.138 59.895 A 72.292 72.292 0 0 1 9.984 54.145 L 13.312 49.665 L 10.496 46.849 A 21.232 21.232 0 0 1 7.29 43.005 A 18.685 18.685 0 0 1 6.144 40.961 Q 5.258 39.188 4.94 38.097 A 5.187 5.187 0 0 1 4.8 37.505 A 7.412 7.412 0 0 1 4.735 36.96 Q 4.608 35.537 4.608 32.001 Q 4.608 28.479 4.797 27.039 A 6.367 6.367 0 0 1 4.864 26.625 Q 5.057 25.66 5.687 23.894 A 61.826 61.826 0 0 1 6.144 22.657 A 37.803 37.803 0 0 1 14.511 10.513 A 44.688 44.688 0 0 1 16.384 8.769 A 38.504 38.504 0 0 1 24.998 2.97 A 33.335 33.335 0 0 1 31.36 0.641 Q 33.33 0.093 35.955 0.014 A 30.099 30.099 0 0 1 36.864 0.001 Q 44.416 0.001 48.256 3.841 Q 51.84 7.425 51.84 12.417 A 3.562 3.562 0 0 1 51.837 12.561 Q 51.825 12.838 51.776 13.377 Q 51.723 13.957 51.714 14.32 A 5.691 5.691 0 0 0 51.712 14.465 A 33.343 33.343 0 0 1 50.227 22.308 Q 47.859 30.113 41.801 40.253 A 163.437 163.437 0 0 1 37.888 46.465 Q 35.968 49.153 35.968 49.665 A 0.48 0.48 0 0 0 36.083 49.954 Q 36.333 50.28 37.128 50.651 A 9.798 9.798 0 0 0 37.504 50.817 Q 43.136 53.889 47.104 57.601 A 11.021 11.021 0 0 1 50.635 64.977 A 14.798 14.798 0 0 1 50.688 65.921 Z M 27.52 14.465 L 27.392 14.465 A 0.733 0.733 0 0 0 27.115 14.541 Q 26.488 14.82 24.952 16.11 A 45.589 45.589 0 0 0 24.704 16.321 Q 22.528 18.177 20.992 19.969 A 26.127 26.127 0 0 0 17.931 24.208 Q 15.616 28.269 15.616 32.385 Q 15.616 34.305 16.128 35.329 A 10.239 10.239 0 0 0 16.723 36.436 Q 17.058 36.982 17.496 37.576 A 23.208 23.208 0 0 0 18.24 38.529 Q 19.372 39.907 20.164 40.528 A 3.721 3.721 0 0 0 20.608 40.833 Q 21.466 41.2 23.381 39.69 A 15.303 15.303 0 0 0 23.552 39.553 A 11.005 11.005 0 0 1 24.545 38.883 Q 25.81 38.135 26.788 38.135 A 2.434 2.434 0 0 1 27.008 38.145 Q 27.136 38.145 27.328 38.209 A 1.669 1.669 0 0 0 27.442 38.242 Q 27.5 38.257 27.551 38.265 A 0.664 0.664 0 0 0 27.648 38.273 Q 28.614 38.273 31.061 34.514 A 53.746 53.746 0 0 0 31.36 34.049 A 65.194 65.194 0 0 0 33.68 30.279 Q 34.861 28.215 36.074 25.81 A 125.601 125.601 0 0 0 37.184 23.553 A 118.679 118.679 0 0 0 38.457 20.816 Q 40.312 16.681 40.704 14.721 Q 40.944 13.044 40.959 12.6 A 1.607 1.607 0 0 0 40.96 12.545 A 1.599 1.599 0 0 0 40.041 11.019 Q 39.28 10.625 37.888 10.625 Q 35.584 10.625 35.136 11.009 A 0.836 0.836 0 0 0 34.93 11.303 Q 34.688 11.835 34.688 13.057 Q 34.688 14.44 33.98 16.797 A 34.908 34.908 0 0 1 33.664 17.793 Q 32.768 20.609 32.256 25.089 Q 32.001 29.171 31.619 30.075 A 1.375 1.375 0 0 1 31.616 30.081 A 0.993 0.993 0 0 1 30.88 30.625 Q 30.497 30.702 29.952 30.593 A 2.908 2.908 0 0 1 29.454 30.45 Q 28.672 30.141 28.672 29.441 Q 28.672 28.885 29.155 27.412 A 32.115 32.115 0 0 1 29.312 26.945 Q 29.952 25.089 29.952 24.577 Q 29.952 23.681 28.864 19.201 Q 27.776 14.721 27.52 14.465 Z M 20.864 54.145 L 19.2 53.377 Q 18.432 54.401 17.792 55.553 Q 15.872 58.753 14.336 63.361 Q 12.8 67.969 12.8 70.657 L 12.8 72.833 L 15.488 72.833 Q 17.92 72.833 19.968 72.321 A 20.317 20.317 0 0 0 22.153 71.58 Q 24.461 70.664 27.546 68.972 A 89.08 89.08 0 0 0 28.992 68.161 A 75.607 75.607 0 0 0 30.782 67.105 Q 34.109 65.074 34.602 64.158 A 0.616 0.616 0 0 0 34.688 63.873 A 1.03 1.03 0 0 0 34.574 63.45 Q 34.197 62.643 32.576 61.121 A 24.192 24.192 0 0 0 31.068 59.81 Q 30.319 59.215 29.615 58.773 A 11.226 11.226 0 0 0 28.672 58.241 L 26.112 57.089 A 0.166 0.166 0 0 0 25.998 57.173 Q 25.798 57.442 25.491 58.57 A 28.588 28.588 0 0 0 25.344 59.137 A 10.989 10.989 0 0 1 25.152 59.82 Q 24.715 61.185 24.192 61.185 Q 23.498 61.185 22.909 57.842 A 39.201 39.201 0 0 1 22.784 57.089 A 4.806 4.806 0 0 0 22.497 55.893 A 3.096 3.096 0 0 0 20.864 54.145 Z" vector-effect="non-scaling-stroke"/></g></svg>
