<svg width="59.52" height="94.208" viewBox="0 0 59.52 94.208" xmlns="http://www.w3.org/2000/svg"><g id="svgGroup" stroke-linecap="round" fill-rule="evenodd" font-size="9pt" stroke="#000" stroke-width="0.25" fill="black" style="stroke:#000;stroke-width:0.25;fill:black"><path d="M 45.952 51.2 L 45.568 51.2 Q 44.64 51.084 44.343 50.863 A 0.495 0.495 0 0 1 44.288 50.816 Q 44.032 50.56 44.16 49.408 A 15.486 15.486 0 0 1 44.172 48.811 Q 44.184 48.506 44.207 48.166 A 26.986 26.986 0 0 1 44.224 47.936 A 55.882 55.882 0 0 0 44.249 47.6 Q 44.288 47.048 44.288 46.848 A 5.653 5.653 0 0 0 44.274 46.485 Q 44.239 45.951 44.116 45.022 A 60.408 60.408 0 0 0 44.032 44.416 A 9.329 9.329 0 0 0 43.882 43.776 Q 43.531 42.496 43.008 42.496 A 0.834 0.834 0 0 0 42.601 42.655 Q 41.74 43.198 39.762 45.603 A 70.128 70.128 0 0 0 39.168 46.336 Q 32.256 54.656 26.112 61.824 Q 16.128 73.472 15.872 73.856 Q 15.574 74.154 15.507 74.298 A 0.176 0.176 0 0 0 15.488 74.367 A 0.075 0.075 0 0 0 15.53 74.431 Q 15.635 74.496 16 74.496 Q 17.536 74.496 25.856 73.472 Q 34.838 72.394 37.209 72.213 A 21.37 21.37 0 0 1 37.504 72.192 Q 42.642 71.725 43.199 71.577 A 0.176 0.176 0 0 0 43.264 71.552 A 0.115 0.115 0 0 0 43.294 71.484 Q 43.35 71.066 41.728 68.864 Q 39.936 66.048 39.936 63.744 A 5.293 5.293 0 0 1 40.274 61.808 Q 40.787 60.49 42.081 59.641 A 6.211 6.211 0 0 1 42.496 59.392 Q 43.997 58.767 45.009 58.752 A 3.332 3.332 0 0 1 45.056 58.752 A 5.049 5.049 0 0 1 47.306 59.343 Q 49.819 60.597 52.864 64.512 A 230.32 230.32 0 0 1 54.612 66.749 Q 57.454 70.436 58.304 71.936 A 9.435 9.435 0 0 1 59.433 75.358 A 11.412 11.412 0 0 1 59.52 76.288 L 59.52 77.312 Q 59.52 79.156 59.001 81.415 A 27.018 27.018 0 0 1 58.88 81.92 Q 58.112 84.224 58.112 88.576 A 37.406 37.406 0 0 1 58.031 90.017 Q 57.876 92.017 57.528 92.921 A 2.902 2.902 0 0 1 57.472 93.056 A 1.816 1.816 0 0 1 56.178 94.124 A 3.151 3.151 0 0 1 55.424 94.208 A 2.953 2.953 0 0 1 54.55 94.09 Q 53.248 93.686 53.248 91.904 A 5.331 5.331 0 0 1 53.264 91.526 Q 53.312 90.866 53.504 89.664 Q 53.706 88.4 53.749 87.656 A 6.362 6.362 0 0 0 53.76 87.296 L 53.888 84.736 L 51.584 83.456 L 49.28 82.304 L 40.704 82.944 Q 29.57 83.835 28.024 83.951 A 10.802 10.802 0 0 1 27.776 83.968 Q 15.616 85.12 9.984 85.12 Q 7.907 85.12 6.647 84.887 A 8.338 8.338 0 0 1 6.528 84.864 Q 0.626 83.591 0.06 78.343 A 10.804 10.804 0 0 1 0 77.184 A 7.411 7.411 0 0 1 0.619 74.328 Q 1.545 72.108 3.854 69.636 A 28.35 28.35 0 0 1 4.224 69.248 Q 11.371 61.485 26.227 44.115 A 2795.66 2795.66 0 0 0 27.392 42.752 Q 32.128 36.992 33.92 32.96 A 18.907 18.907 0 0 0 35.129 29.105 Q 35.712 26.288 35.712 22.784 A 8.009 8.009 0 0 0 35.464 20.92 Q 35.012 19.048 33.736 16.54 A 41.18 41.18 0 0 0 32.896 14.976 Q 31.744 13.056 31.232 12.032 A 7.418 7.418 0 0 0 30.651 11.11 Q 29.978 10.209 29.184 9.856 A 4.217 4.217 0 0 0 28.551 9.644 Q 27.421 9.348 25.156 9.16 A 59.283 59.283 0 0 0 24.192 9.088 Q 23.317 9.001 22.143 8.973 A 48.933 48.933 0 0 0 20.992 8.96 A 10.532 10.532 0 0 0 19.725 9.03 Q 17.838 9.26 17.152 10.24 A 3.34 3.34 0 0 0 16.741 11.106 Q 16.278 12.505 16.257 15.231 A 33.989 33.989 0 0 0 16.256 15.488 Q 16.256 18.688 17.664 22.784 Q 18.944 25.837 19.239 27.677 A 6.339 6.339 0 0 1 19.328 28.672 Q 19.328 29.952 18.816 31.616 Q 18.176 33.792 18.176 35.456 Q 18.176 36.502 18.261 37.12 A 4.33 4.33 0 0 0 18.304 37.376 Q 18.42 37.954 18.431 38.95 A 19.427 19.427 0 0 1 18.432 39.168 A 4.345 4.345 0 0 1 18.358 40.009 Q 18.094 41.34 16.888 41.46 A 2.507 2.507 0 0 1 16.64 41.472 L 16 41.472 Q 14.848 41.344 14.848 40.32 Q 14.848 39.362 15.52 35.938 A 142.074 142.074 0 0 1 15.616 35.456 L 16.384 31.872 L 15.232 30.08 Q 14.08 28.16 13.44 26.752 A 11.556 11.556 0 0 0 13.134 25.769 Q 12.714 24.618 12.16 24.064 A 15.947 15.947 0 0 1 8.876 17.747 Q 8.216 15.34 8.093 12.48 A 31.089 31.089 0 0 1 8.064 11.136 Q 8.064 7.424 9.088 5.376 Q 9.984 3.456 10.88 2.496 A 5.478 5.478 0 0 1 11.717 1.775 Q 12.476 1.236 13.568 0.768 Q 15.36 0 22.4 0 A 100.409 100.409 0 0 1 26.222 0.068 Q 29.799 0.205 32.224 0.618 A 23.124 23.124 0 0 1 33.024 0.768 A 23.804 23.804 0 0 1 41.821 4.338 A 22.798 22.798 0 0 1 45.12 7.04 Q 50.048 11.904 51.328 18.56 A 11.089 11.089 0 0 1 51.474 19.531 Q 51.529 20.037 51.556 20.627 A 27.079 27.079 0 0 1 51.584 21.888 Q 51.584 24.316 50.644 28.311 A 64.781 64.781 0 0 1 50.432 29.184 Q 47.783 40.471 47.518 43.26 A 5.627 5.627 0 0 0 47.488 43.776 Q 47.488 44.606 47.928 46.646 A 53.431 53.431 0 0 0 48 46.976 Q 48.218 48.066 48.25 48.506 A 1.857 1.857 0 0 1 48.256 48.64 A 4.144 4.144 0 0 1 48.154 49.606 Q 47.843 50.899 46.588 51.143 A 3.33 3.33 0 0 1 45.952 51.2 Z M 38.272 14.208 L 38.144 14.208 A 0.764 0.764 0 0 0 37.498 14.635 Q 37.017 15.405 36.901 17.561 A 28.298 28.298 0 0 0 36.864 19.072 Q 36.864 20.118 36.949 20.736 A 4.33 4.33 0 0 0 36.992 20.992 Q 37.078 21.766 37.106 22.829 A 41.834 41.834 0 0 1 37.12 23.936 A 19.814 19.814 0 0 1 37.106 24.713 Q 37.06 25.878 36.864 26.368 A 4.184 4.184 0 0 0 36.718 26.957 Q 36.663 27.266 36.636 27.631 A 10.452 10.452 0 0 0 36.608 28.416 Q 36.608 29.626 36.879 29.956 A 0.304 0.304 0 0 0 37.12 30.08 Q 37.239 30.08 37.468 29.859 A 2.67 2.67 0 0 0 37.504 29.824 Q 38.656 28.672 39.744 25.984 A 22.988 22.988 0 0 0 40.379 24.227 Q 40.651 23.357 40.799 22.586 A 9.905 9.905 0 0 0 40.96 21.376 L 40.96 20.224 A 6.28 6.28 0 0 0 40.705 18.5 Q 40.498 17.774 40.123 17.006 A 11.542 11.542 0 0 0 39.936 16.64 Q 38.714 14.562 38.309 14.235 A 0.5 0.5 0 0 0 38.272 14.208 Z" vector-effect="non-scaling-stroke"/></g></svg>
