<svg width="60.288" height="98.944" viewBox="0 0 60.288 98.944" xmlns="http://www.w3.org/2000/svg"><g id="svgGroup" stroke-linecap="round" fill-rule="evenodd" font-size="9pt" stroke="#000" stroke-width="0.25" fill="black" style="stroke:#000;stroke-width:0.25;fill:black"><path d="M 48.256 75.648 L 46.848 73.984 L 44.288 76.16 Q 36.352 82.944 25.344 84.736 Q 23.04 85.12 20.352 85.12 Q 13.952 85.12 10.368 83.712 Q 8.704 83.072 7.936 83.072 A 1.3 1.3 0 0 0 7.513 83.135 Q 6.912 83.342 6.912 84.224 Q 6.912 84.864 7.04 85.376 Q 7.552 88.064 7.552 92.288 Q 7.552 95.36 7.168 96.512 A 9.508 9.508 0 0 1 6.794 97.4 Q 6.038 98.944 5.12 98.944 A 1.119 1.119 0 0 1 4.644 98.828 Q 4.282 98.658 3.884 98.239 A 5.129 5.129 0 0 1 3.712 98.048 A 4.993 4.993 0 0 1 3.14 97.274 Q 2.852 96.785 2.747 96.297 A 2.644 2.644 0 0 1 2.688 95.744 Q 2.688 94.592 3.328 93.056 Q 3.712 91.648 3.712 90.368 Q 3.712 88.96 3.136 86.016 Q 2.585 83.196 2.561 82.725 A 0.758 0.758 0 0 1 2.56 82.688 Q 2.048 78.976 1.024 76.032 Q 0.054 73.486 0.003 71.284 A 10.508 10.508 0 0 1 0 71.04 Q 0 68.399 2.177 68.028 A 4.582 4.582 0 0 1 2.944 67.968 A 5.721 5.721 0 0 1 4.998 68.381 Q 6.62 69.004 8.455 70.568 A 20.802 20.802 0 0 1 8.704 70.784 A 12.272 12.272 0 0 0 15.854 73.676 A 15.956 15.956 0 0 0 17.152 73.728 Q 20.352 73.728 24.96 72.576 Q 36.608 69.504 43.136 58.368 Q 47.014 51.739 47.958 47.065 A 17.946 17.946 0 0 0 48 46.848 L 48.256 45.312 L 46.72 46.72 A 37.446 37.446 0 0 1 40.081 51.043 Q 34.872 53.654 29.568 53.888 L 27.648 53.888 Q 21.888 53.888 17.28 51.328 A 13.083 13.083 0 0 1 13.975 48.678 Q 12.815 47.414 11.787 45.753 A 26.052 26.052 0 0 1 10.88 44.16 Q 8.192 38.784 8.192 32.256 A 35.559 35.559 0 0 1 11.869 16.68 A 45.086 45.086 0 0 1 14.464 12.032 A 28.573 28.573 0 0 1 20.061 5.629 A 22.883 22.883 0 0 1 30.08 0.768 Q 33.152 0 34.688 0 Q 35.42 0 37.434 0.342 A 83.908 83.908 0 0 1 38.4 0.512 A 21.476 21.476 0 0 1 52.816 10.612 A 30.648 30.648 0 0 1 54.144 12.928 A 53.397 53.397 0 0 1 58.591 24.071 A 46.367 46.367 0 0 1 59.776 29.952 Q 60.239 32.843 60.284 37.718 A 116.298 116.298 0 0 1 60.288 38.784 Q 60.288 45.824 59.52 48.896 Q 57.344 57.344 55.04 62.976 Q 53.376 66.816 52.608 81.92 A 19.018 19.018 0 0 1 52.54 82.746 Q 52.415 83.923 52.17 84.415 A 1.172 1.172 0 0 1 52.096 84.544 A 1.055 1.055 0 0 1 51.661 84.905 Q 51.214 85.12 50.432 85.12 A 2.47 2.47 0 0 1 49.825 85.05 A 1.493 1.493 0 0 1 48.832 84.288 A 1.493 1.493 0 0 1 48.648 83.57 Q 48.648 83.108 48.928 82.596 A 3.3 3.3 0 0 1 49.024 82.432 A 4.033 4.033 0 0 0 49.533 81.159 Q 49.648 80.642 49.662 80.044 A 7.168 7.168 0 0 0 49.664 79.872 A 7.05 7.05 0 0 0 49.231 77.371 A 6.451 6.451 0 0 0 48.256 75.648 Z M 40.704 12.544 A 9.307 9.307 0 0 0 39.374 11.631 Q 38.574 11.185 37.794 11.004 A 4.662 4.662 0 0 0 36.736 10.88 Q 36.096 10.88 35.84 11.264 Q 35.731 11.592 35.528 13.321 A 104.994 104.994 0 0 0 35.456 13.952 Q 35.074 17.648 34.692 19.44 A 16.84 16.84 0 0 1 34.688 19.456 Q 34.304 21.504 34.304 23.168 Q 34.304 23.808 34.56 26.88 Q 34.816 29.184 34.816 29.952 A 8.516 8.516 0 0 1 34.674 31.587 Q 34.114 34.432 31.36 34.432 A 3.135 3.135 0 0 1 30.435 34.307 Q 29.417 33.993 29.151 32.885 A 3.795 3.795 0 0 1 29.056 32 Q 29.056 30.891 29.633 29.591 A 9.637 9.637 0 0 1 29.824 29.184 Q 30.443 27.699 30.464 23.941 A 47.719 47.719 0 0 0 30.464 23.68 Q 30.464 18.48 29.788 16.575 A 2.789 2.789 0 0 0 29.44 15.872 A 7.748 7.748 0 0 1 29.052 15.146 Q 28.699 14.384 28.674 13.786 A 2.159 2.159 0 0 1 28.672 13.696 Q 28.672 12.544 28.032 12.544 A 1.658 1.658 0 0 0 27.246 12.788 Q 26.166 13.389 24.523 15.465 A 36.155 36.155 0 0 0 23.68 16.576 Q 20.736 20.608 19.328 24.704 Q 18.176 28.416 18.176 32.256 Q 18.176 39.264 20.719 42.458 A 7.054 7.054 0 0 0 21.76 43.52 Q 23.281 44.787 26.306 45.678 A 25.457 25.457 0 0 0 26.368 45.696 Q 28.8 46.464 31.872 46.464 Q 36.864 46.464 41.472 44.608 A 19.451 19.451 0 0 0 44.338 43.188 Q 45.905 42.232 47.02 41.061 A 10.243 10.243 0 0 0 48.128 39.68 Q 48.804 38.715 48.97 37.823 A 3.133 3.133 0 0 0 49.024 37.248 Q 49.024 36.352 48.64 33.024 Q 48 26.752 45.632 20.736 A 42.186 42.186 0 0 0 44.361 17.811 Q 42.983 14.966 41.544 13.366 A 8.82 8.82 0 0 0 40.704 12.544 Z" vector-effect="non-scaling-stroke"/></g></svg>
