<svg width="59.522" height="100.609" viewBox="0 0 59.522 100.609" xmlns="http://www.w3.org/2000/svg"><g id="svgGroup" stroke-linecap="round" fill-rule="evenodd" font-size="9pt" stroke="#000" stroke-width="0.25" fill="black" style="stroke:#000;stroke-width:0.25;fill:black"><path d="M 52.098 36.864 L 51.586 36.864 Q 49.666 36.864 49.666 33.536 Q 49.666 32.314 49.782 31.559 A 6.01 6.01 0 0 1 49.794 31.488 Q 49.922 30.592 49.922 29.312 A 5.899 5.899 0 0 0 49.75 27.834 Q 49.298 26.088 47.654 25.408 A 4.523 4.523 0 0 0 47.49 25.344 A 8.956 8.956 0 0 1 43.855 22.91 Q 41.813 20.73 40.322 16.896 Q 39.291 14.148 38.568 12.322 A 131.402 131.402 0 0 0 38.402 11.904 Q 38.146 11.392 38.018 11.392 A 0.852 0.852 0 0 0 37.647 11.553 Q 36.481 12.289 32.386 16.384 Q 29.57 19.2 23.298 24.576 L 19.97 27.52 Q 19.97 27.743 25.102 29.176 A 327.663 327.663 0 0 0 26.754 29.632 A 238.326 238.326 0 0 0 29.501 30.367 Q 34.014 31.544 35.714 31.744 Q 38.33 32.058 42.571 34.425 A 55.467 55.467 0 0 1 44.546 35.584 Q 49.584 38.676 52.983 41.972 A 33.504 33.504 0 0 1 53.762 42.752 A 22.836 22.836 0 0 1 57.383 47.628 A 17.168 17.168 0 0 1 59.522 55.936 Q 59.522 59.264 58.37 62.72 Q 57.147 66.631 57.092 67.508 A 1.219 1.219 0 0 0 57.09 67.584 Q 57.09 68.992 55.938 74.496 Q 54.786 80 54.402 80.384 Q 54.104 80.682 53.96 80.749 A 0.176 0.176 0 0 1 53.891 80.768 Q 52.866 80.768 52.866 75.904 L 52.866 71.68 L 50.562 73.984 Q 42.498 81.536 30.082 85.12 Q 24.834 86.656 21.762 86.656 L 18.946 86.656 A 32.991 32.991 0 0 1 14.501 86.241 A 25.343 25.343 0 0 1 10.882 85.376 Q 7.81 84.608 7.81 85.12 Q 7.81 85.632 6.402 88.96 Q 4.994 92.416 4.994 94.208 Q 4.994 96 6.018 96.768 A 2.816 2.816 0 0 1 6.37 97.152 Q 7.259 98.337 5.756 99.611 A 5.552 5.552 0 0 1 5.634 99.712 Q 4.61 100.608 3.202 100.608 A 2.951 2.951 0 0 1 1.895 100.323 A 2.975 2.975 0 0 1 0.898 99.52 A 3.866 3.866 0 0 1 0.081 97.705 A 5.34 5.34 0 0 1 0.002 96.768 Q 0.002 95.488 0.514 94.336 Q 1.622 91.657 1.931 87.712 A 41.535 41.535 0 0 0 2.05 84.48 Q 2.05 83.232 1.965 82.744 A 1.302 1.302 0 0 0 1.922 82.56 A 41.097 41.097 0 0 1 0.081 72.403 A 47.893 47.893 0 0 1 0.002 69.632 A 15.117 15.117 0 0 1 4.788 58.374 A 19.571 19.571 0 0 1 5.634 57.6 Q 10.107 53.4 14.581 52.196 A 13.786 13.786 0 0 1 18.178 51.712 A 8.239 8.239 0 0 1 19.734 51.85 Q 20.638 52.024 21.345 52.418 A 4.298 4.298 0 0 1 22.146 52.992 A 4.451 4.451 0 0 1 22.673 53.521 Q 23.107 54.043 23.234 54.592 Q 23.42 55.399 23.425 58.558 A 111.583 111.583 0 0 1 23.426 58.752 Q 23.426 61.952 23.81 65.024 A 1.904 1.904 0 0 1 23.874 65.286 Q 23.924 65.558 23.934 65.945 A 8.175 8.175 0 0 1 23.938 66.176 Q 23.938 67.7 22.729 68.014 A 2.829 2.829 0 0 1 22.018 68.096 A 1.974 1.974 0 0 1 20.259 66.987 Q 19.37 65.475 19.331 61.899 A 30.502 30.502 0 0 1 19.33 61.568 L 19.33 57.984 L 16.642 60.288 A 30.71 30.71 0 0 0 14.1 62.746 Q 11.629 65.456 10.982 67.849 A 6.332 6.332 0 0 0 10.754 69.504 A 5.421 5.421 0 0 0 11.054 71.338 A 4.781 4.781 0 0 0 12.034 72.96 Q 14.252 75.302 19.438 75.389 A 24.117 24.117 0 0 0 19.842 75.392 L 22.274 75.392 A 29.779 29.779 0 0 0 25.754 75.103 Q 27.49 74.848 28.966 74.382 A 15.936 15.936 0 0 0 30.082 73.984 A 66.077 66.077 0 0 0 36.252 71.092 Q 39.229 69.491 41.595 67.742 A 31.238 31.238 0 0 0 44.546 65.28 Q 47.837 62.153 49.013 59.025 A 9.813 9.813 0 0 0 49.666 55.552 Q 49.666 52.864 48.258 50.688 Q 47.127 48.838 43.893 46.287 A 54.057 54.057 0 0 0 42.178 44.992 Q 37.506 41.6 34.946 40.96 Q 31.286 40.228 21.476 36.934 A 559.221 559.221 0 0 1 16.77 35.328 Q 12.917 34.044 11.838 33.833 A 1.824 1.824 0 0 0 11.522 33.792 Q 10.431 33.792 10.373 38.609 A 46.254 46.254 0 0 0 10.37 39.168 L 10.37 40.576 Q 10.485 41.154 10.496 42.15 A 19.427 19.427 0 0 1 10.498 42.368 Q 10.498 45.312 8.834 45.312 Q 6.996 45.312 6.71 41.933 A 16.191 16.191 0 0 1 6.658 40.576 A 16.782 16.782 0 0 0 6.173 36.65 A 21.103 21.103 0 0 0 5.506 34.432 Q 4.781 32.258 4.569 30.532 A 11.089 11.089 0 0 1 4.482 29.184 A 7.786 7.786 0 0 1 4.954 26.544 A 9.094 9.094 0 0 1 5.122 26.112 Q 5.89 24.448 13.698 19.328 A 71.224 71.224 0 0 0 19.282 15.309 Q 22.07 13.107 25.098 10.361 A 160.68 160.68 0 0 0 29.954 5.76 Q 34.69 1.152 36.482 0.512 Q 38.035 0.068 39.011 0.009 A 4.747 4.747 0 0 1 39.298 0 Q 40.322 0 41.858 0.512 A 1.933 1.933 0 0 1 42.253 0.79 Q 42.956 1.406 44.034 3.072 Q 45.442 5.248 46.21 7.296 A 28.011 28.011 0 0 0 47.296 9.587 Q 48.577 12.025 50.711 15.24 A 120.346 120.346 0 0 0 52.098 17.28 A 11.417 11.417 0 0 1 53.23 19.103 Q 53.784 20.236 53.948 21.342 A 6.315 6.315 0 0 1 54.018 22.272 Q 54.018 23.927 53.721 26.101 A 48.399 48.399 0 0 1 53.506 27.52 Q 53.266 29.676 53.251 30.263 A 2.814 2.814 0 0 0 53.25 30.336 Q 53.25 31.145 53.667 32.477 A 17.258 17.258 0 0 0 53.762 32.768 A 15.711 15.711 0 0 1 53.973 33.326 Q 54.274 34.168 54.274 34.56 A 2.808 2.808 0 0 1 54.131 35.491 Q 53.83 36.35 52.893 36.686 A 3.612 3.612 0 0 1 52.098 36.864 Z" vector-effect="non-scaling-stroke"/></g></svg>
