<?xml version="1.0" encoding="UTF-8"?>
<svg xmlns="http://www.w3.org/2000/svg" width="27.776" height="96.896" viewBox="0 0 27.776 96.896">
  <g id="svgGroup" stroke-linecap="round" fill-rule="evenodd" font-size="9pt" stroke="#000" stroke-width="0.25" fill="black" style="stroke:#000;stroke-width:0.25;fill:black">
    <path d="M 17.408 68.224 L 17.024 72.448 L 19.2 70.144 Q 20.42 68.848 21.595 68.324 A 3.84 3.84 0 0 1 23.168 67.968 Q 25.088 67.968 26.368 69.12 A 4.451 4.451 0 0 1 26.896 69.649 Q 27.329 70.171 27.456 70.72 Q 27.636 71.499 27.759 74.575 A 137.894 137.894 0 0 1 27.776 75.008 L 27.776 77.184 Q 27.776 80.768 27.264 83.328 Q 26.663 86.094 26.626 87.843 A 10.632 10.632 0 0 0 26.624 88.064 Q 26.624 89.225 26.711 89.95 A 6.396 6.396 0 0 0 26.752 90.24 Q 26.752 90.624 26.816 91.2 Q 26.875 91.73 26.88 91.989 A 2.366 2.366 0 0 1 26.88 92.032 A 10.444 10.444 0 0 1 26.768 93.632 Q 26.643 94.435 26.379 95.039 A 2.839 2.839 0 0 1 24.448 96.768 Q 24.32 96.768 24.128 96.832 A 1.669 1.669 0 0 1 24.014 96.866 Q 23.956 96.881 23.905 96.888 A 0.664 0.664 0 0 1 23.808 96.896 A 2.479 2.479 0 0 1 22.023 96.148 A 3.459 3.459 0 0 1 21.824 95.936 A 3.537 3.537 0 0 1 21.229 94.998 A 2.985 2.985 0 0 1 20.992 93.824 Q 20.992 92.8 21.504 92.16 A 2.451 2.451 0 0 0 21.709 91.634 Q 22.07 90.373 22.272 87.04 Q 22.4 85.76 22.4 84.224 Q 22.4 83.155 21.957 82.75 A 0.896 0.896 0 0 0 21.632 82.56 Q 21.526 82.454 21.332 82.436 A 0.9 0.9 0 0 0 21.248 82.432 Q 20.525 82.432 17.759 85.042 A 63.079 63.079 0 0 0 17.408 85.376 Q 14.336 88.448 12.16 88.832 Q 11.161 88.903 10.322 88.736 A 4.872 4.872 0 0 1 9.088 88.32 A 3.683 3.683 0 0 1 7.53 86.17 Q 7.34 85.52 7.304 84.726 A 8.336 8.336 0 0 1 7.296 84.352 Q 7.296 82.816 7.936 78.72 Q 8.643 74.477 9.785 64.805 A 993.38 993.38 0 0 0 9.984 63.104 Q 11.392 51.072 14.208 35.84 Q 17.684 16.952 18.014 14.114 A 4.225 4.225 0 0 0 18.048 13.696 A 0.055 0.055 0 0 0 17.998 13.642 Q 17.774 13.583 16.54 14.097 A 30.972 30.972 0 0 0 16.128 14.272 Q 14.208 15.104 12.16 16.128 Q 10.119 17.149 9.731 17.533 A 0.835 0.835 0 0 0 9.728 17.536 Q 8.192 19.072 8.192 21.376 A 12.563 12.563 0 0 0 8.215 22.156 Q 8.262 22.92 8.411 23.432 A 3.168 3.168 0 0 0 8.448 23.552 A 7.637 7.637 0 0 1 8.832 25.974 A 8.329 8.329 0 0 1 8.832 25.984 Q 8.832 27.008 8.448 29.312 Q 8.082 31.267 8.065 32.522 A 8.889 8.889 0 0 0 8.064 32.64 Q 8.064 34.048 8.576 35.584 Q 9.216 37.504 9.216 39.296 Q 9.216 40.832 8.32 42.112 Q 7.389 43.276 5.929 43.276 A 3.875 3.875 0 0 1 5.632 43.264 Q 3.712 43.136 3.712 41.856 A 2.564 2.564 0 0 1 3.829 41.117 Q 3.929 40.785 4.114 40.425 A 6.356 6.356 0 0 1 4.48 39.808 A 3.539 3.539 0 0 0 4.915 38.764 Q 5.62 36.216 5.632 29.044 A 149.178 149.178 0 0 0 5.632 28.8 A 11.698 11.698 0 0 0 5.469 26.798 A 8.604 8.604 0 0 0 4.864 24.768 Q 4.119 23.092 0.607 17.385 A 380.857 380.857 0 0 0 0.384 17.024 A 1.881 1.881 0 0 1 0.045 16.242 A 2.61 2.61 0 0 1 0 15.744 A 1.862 1.862 0 0 1 0.214 14.928 Q 0.711 13.916 2.361 12.6 A 18.798 18.798 0 0 1 2.432 12.544 A 26.792 26.792 0 0 1 3.917 11.466 Q 6.436 9.748 11.188 7.045 A 249.121 249.121 0 0 1 11.648 6.784 Q 15.232 4.736 19.072 2.048 A 21.282 21.282 0 0 1 20.461 1.154 Q 21.822 0.357 22.838 0.11 A 3.59 3.59 0 0 1 23.68 0 A 3.341 3.341 0 0 1 25.686 0.675 A 4.68 4.68 0 0 1 26.24 1.152 Q 27.392 2.304 27.392 4.096 Q 27.392 6.272 25.856 12.928 Q 24.832 17.408 24.256 20.608 Q 23.68 23.808 23.04 27.968 Q 22.4 32.128 21.632 36.352 Q 18.56 53.12 17.408 68.224 Z" vector-effect="non-scaling-stroke"></path>
  </g>
</svg>

