<svg width="58.675" height="110.336" viewBox="0 0 58.675 110.336" xmlns="http://www.w3.org/2000/svg"><g id="svgGroup" stroke-linecap="round" fill-rule="evenodd" font-size="9pt" stroke="#000" stroke-width="0.25" fill="black" style="stroke:#000;stroke-width:0.25;fill:black"><path d="M 47.795 24.96 L 46.771 22.656 L 44.595 26.496 Q 42.931 29.312 40.115 33.664 Q 39.037 35.232 38.447 36.575 A 10.656 10.656 0 0 0 38.131 37.376 A 17.152 17.152 0 0 0 37.75 38.649 Q 37.576 39.317 37.415 40.103 A 42.594 42.594 0 0 0 37.107 41.792 Q 36.659 44.544 36.275 46.208 Q 35.379 49.536 35.379 53.376 A 33.037 33.037 0 0 1 35.358 54.616 Q 35.293 56.331 35.033 57.096 A 1.986 1.986 0 0 1 34.931 57.344 Q 34.572 58.063 33.512 58.205 A 4.259 4.259 0 0 1 32.947 58.24 A 3.223 3.223 0 0 1 32.223 58.166 Q 31.027 57.889 31.027 56.576 A 2.757 2.757 0 0 1 31.076 56.091 Q 31.205 55.382 31.667 54.272 A 9.114 9.114 0 0 0 32.353 52.088 Q 32.537 51.106 32.56 49.987 A 15.715 15.715 0 0 0 32.563 49.664 Q 32.563 48.358 32.248 47.683 A 1.595 1.595 0 0 0 32.051 47.36 A 2.25 2.25 0 0 0 31.947 47.262 Q 31.768 47.104 31.667 47.104 A 0.761 0.761 0 0 0 31.265 47.294 Q 30.224 48.079 27.443 52.096 Q 24.243 56.704 21.939 59.904 Q 19.264 63.435 18.825 64.551 A 1.018 1.018 0 0 0 18.739 64.896 A 0.184 0.184 0 0 0 18.746 64.947 Q 18.762 65.003 18.82 65.019 A 0.189 0.189 0 0 0 18.867 65.024 Q 21.343 65.024 29.47 63.112 A 314.337 314.337 0 0 0 33.715 62.08 L 37.043 61.312 L 37.683 57.088 Q 38.896 50.416 40.589 46.778 A 14.485 14.485 0 0 1 41.523 45.056 A 5.489 5.489 0 0 1 42.337 44.227 Q 42.78 43.856 43.354 43.499 A 13.73 13.73 0 0 1 44.467 42.88 A 11.593 11.593 0 0 1 45.934 42.261 Q 47.133 41.856 48.179 41.856 A 8.848 8.848 0 0 1 53.411 43.596 A 13.15 13.15 0 0 1 55.411 45.376 Q 58.675 48.896 58.675 53.376 Q 58.675 56.704 56.243 60.416 A 17.653 17.653 0 0 1 53.855 63.359 A 13.305 13.305 0 0 1 50.483 65.792 Q 49.587 66.304 49.267 67.2 Q 48.947 68.096 48.307 72.576 Q 47.823 76.446 47.193 79.365 A 44.724 44.724 0 0 1 46.771 81.152 Q 46.131 83.456 46.131 86.144 A 12.742 12.742 0 0 1 45.947 88.234 Q 45.725 89.567 45.235 91.072 A 18.773 18.773 0 0 1 44.843 92.169 Q 44.223 93.736 43.602 94.228 A 1.272 1.272 0 0 1 43.443 94.336 Q 42.962 94.577 41.011 96.513 A 97.068 97.068 0 0 0 40.755 96.768 A 10.455 10.455 0 0 0 39.447 98.339 Q 38.771 99.35 38.502 100.383 A 5.436 5.436 0 0 0 38.323 101.76 A 5.196 5.196 0 0 0 38.956 104.217 A 7.039 7.039 0 0 0 39.603 105.216 A 8.787 8.787 0 0 1 40.045 105.815 Q 40.446 106.414 40.571 106.875 A 1.493 1.493 0 0 1 40.627 107.264 Q 40.627 108.47 38.811 109.334 A 7.964 7.964 0 0 1 38.579 109.44 Q 36.95 110.255 35.85 110.329 A 3.199 3.199 0 0 1 35.635 110.336 A 2.86 2.86 0 0 1 35.174 110.295 Q 34.659 110.21 33.971 109.952 Q 33.394 109.606 33.182 108.48 A 5.77 5.77 0 0 1 33.139 108.224 A 4.75 4.75 0 0 1 33.109 107.962 Q 33.012 106.841 33.587 106.496 A 0.21 0.21 0 0 0 33.696 106.364 Q 33.925 105.811 33.723 103.015 A 59.949 59.949 0 0 0 33.715 102.912 Q 33.593 102.179 33.587 100.98 A 24.904 24.904 0 0 1 33.587 100.864 Q 33.587 99.456 34.227 97.792 Q 34.69 96.681 34.818 95.771 A 4.79 4.79 0 0 0 34.867 95.104 A 1.048 1.048 0 0 0 34.864 95.033 Q 34.853 94.879 34.804 94.534 A 20.566 20.566 0 0 0 34.803 94.528 Q 34.75 94.159 34.741 93.92 A 2.48 2.48 0 0 1 34.739 93.824 L 34.739 92.032 A 83.493 83.493 0 0 1 34.751 90.755 Q 34.785 88.639 34.91 84.509 A 1385.726 1385.726 0 0 1 34.995 81.792 Q 35.251 73.856 35.251 72.832 L 35.251 71.936 A 0.079 0.079 0 0 0 35.211 71.921 Q 34.825 71.855 31.027 72.448 Q 26.931 73.088 21.875 73.984 Q 16.819 74.88 14.387 75.392 Q 9.523 76.416 8.115 76.416 Q 6.327 76.416 5.905 77.002 A 0.676 0.676 0 0 0 5.811 77.184 A 0.807 0.807 0 0 0 5.719 77.427 Q 5.567 78.035 5.556 79.836 A 47.471 47.471 0 0 0 5.555 80.128 Q 5.555 84.224 6.067 86.016 Q 6.186 86.253 6.195 86.931 A 8.56 8.56 0 0 1 6.195 87.04 A 6.081 6.081 0 0 1 6.044 88.45 Q 5.829 89.349 5.311 89.962 A 3.309 3.309 0 0 1 4.019 90.88 Q 3.519 91.047 3.128 91.105 A 2.657 2.657 0 0 1 2.739 91.136 A 6.346 6.346 0 0 1 1.841 91.078 Q 0.803 90.929 0.357 90.396 A 1.414 1.414 0 0 1 0.051 89.728 Q -0.205 88.96 0.819 86.784 Q 1.587 84.864 1.587 83.584 Q 1.587 83.2 1.331 80.896 A 158.19 158.19 0 0 0 1.084 78.951 Q 0.762 76.542 0.497 75.288 A 15.334 15.334 0 0 0 0.435 75.008 Q 0.179 74.24 0.179 72.832 A 13.079 13.079 0 0 1 0.221 71.751 Q 0.266 71.217 0.357 70.753 A 7.025 7.025 0 0 1 0.435 70.4 Q 1.075 67.328 2.931 64.192 A 46.305 46.305 0 0 1 4.03 62.444 Q 6.197 59.136 10.803 52.864 Q 16.947 44.544 24.883 33.088 Q 32.819 21.632 34.227 19.584 A 48.924 48.924 0 0 0 35.09 18.269 Q 36.454 16.128 38.825 12.109 A 616.484 616.484 0 0 0 40.371 9.472 A 178.499 178.499 0 0 1 41.527 7.503 Q 43.115 4.84 44.039 3.557 A 13.49 13.49 0 0 1 44.403 3.072 A 8.071 8.071 0 0 1 46.383 1.261 A 7.504 7.504 0 0 1 47.283 0.768 A 7.748 7.748 0 0 1 48.009 0.38 Q 48.772 0.027 49.37 0.002 A 2.159 2.159 0 0 1 49.459 0 Q 49.971 0 51.507 0.64 Q 54.323 1.792 54.963 6.528 Q 56.269 15.076 56.364 20.32 A 44.325 44.325 0 0 1 56.371 21.12 A 138.899 138.899 0 0 1 56.364 22.544 Q 56.335 25.384 56.179 26.112 Q 55.987 27.008 54.963 28.032 Q 53.683 29.312 52.403 29.312 Q 49.715 29.312 47.795 24.96 Z" vector-effect="non-scaling-stroke"/></g></svg>
