<?xml version="1.0" encoding="UTF-8"?>
<svg xmlns="http://www.w3.org/2000/svg" width="54.273" height="101.506" viewBox="0 0 54.273 101.506">
  <g id="svgGroup" stroke-linecap="round" fill-rule="evenodd" font-size="9pt" stroke="#000" stroke-width="0.25" fill="black" style="stroke:#000;stroke-width:0.25;fill:black">
    <path d="M 36.224 93.314 L 35.584 93.314 L 35.584 89.858 Q 35.584 87.042 35.328 83.202 L 34.816 79.746 L 32.512 80.77 A 30.448 30.448 0 0 1 30.244 81.564 Q 27.452 82.43 23.36 83.266 Q 18.455 84.269 15.245 84.619 A 37.513 37.513 0 0 1 13.952 84.738 Q 12.951 84.863 11.338 84.866 A 42.735 42.735 0 0 1 11.264 84.866 A 9.948 9.948 0 0 1 4.065 81.89 A 12.552 12.552 0 0 1 3.968 81.794 A 11.719 11.719 0 0 1 1.363 77.652 Q 0 74.116 0 68.866 Q 0 65.632 0.451 61.498 A 109.468 109.468 0 0 1 0.768 58.882 Q 3.712 36.866 15.232 16.258 Q 16.501 13.848 19.278 9.049 A 572.875 572.875 0 0 1 19.328 8.962 Q 21.345 5.192 23.662 2.983 A 12.881 12.881 0 0 1 25.856 1.282 Q 27.648 0.002 30.08 0.002 A 7.282 7.282 0 0 1 36.032 2.84 A 11.337 11.337 0 0 1 37.376 4.994 Q 38.365 7.096 38.519 12.659 A 68.784 68.784 0 0 1 38.528 13.058 L 38.528 16.13 Q 38.528 19.458 37.248 23.938 Q 34.304 34.818 31.488 39.042 Q 30.848 40.066 29.824 40.066 Q 28.928 40.066 28.928 38.274 Q 28.928 36.075 29.511 32.594 A 70.527 70.527 0 0 1 29.568 32.258 Q 30.81 24.394 31.048 19.709 A 40.509 40.509 0 0 0 31.104 17.666 A 17.209 17.209 0 0 0 30.966 15.529 A 20.075 20.075 0 0 0 30.848 14.722 Q 30.385 12.405 29.922 12.185 A 0.225 0.225 0 0 0 29.824 12.162 Q 29.154 12.162 24.88 20.151 A 340.647 340.647 0 0 0 23.552 22.658 L 21.888 25.858 L 21.888 36.354 A 449.915 449.915 0 0 0 21.892 38.094 Q 21.903 40.811 21.943 45.52 A 3934.85 3934.85 0 0 0 21.952 46.658 A 3670.169 3670.169 0 0 1 21.979 49.852 Q 22.016 54.648 22.016 56.706 Q 22.016 64.642 21.632 66.242 Q 21.248 67.842 19.328 68.354 A 0.858 0.858 0 0 1 19.16 68.415 Q 18.981 68.461 18.71 68.475 A 5.149 5.149 0 0 1 18.432 68.482 Q 16.909 68.482 16.594 67.273 A 2.829 2.829 0 0 1 16.512 66.562 A 3.394 3.394 0 0 1 16.723 65.416 Q 16.884 64.966 17.167 64.499 A 6.783 6.783 0 0 1 17.408 64.13 L 18.688 62.466 L 18.432 54.658 Q 18.176 44.162 16.512 42.37 Q 15.88 41.738 15.748 41.793 A 0.049 0.049 0 0 0 15.744 41.794 Q 15.618 41.858 15.116 43.234 A 45.102 45.102 0 0 0 15.104 43.266 A 75.059 75.059 0 0 0 11.119 63.293 A 69.471 69.471 0 0 0 11.008 67.202 L 11.008 68.482 A 55.724 55.724 0 0 0 11.03 70.09 Q 11.096 72.378 11.368 73.434 A 3.658 3.658 0 0 0 11.456 73.73 Q 11.878 74.935 13.49 75.006 A 4.696 4.696 0 0 0 13.696 75.01 Q 14.894 75.01 20.015 73.89 A 232.156 232.156 0 0 0 20.736 73.73 A 48.798 48.798 0 0 0 31.101 70.262 A 45.514 45.514 0 0 0 31.744 69.954 A 42.421 42.421 0 0 0 34.525 68.478 Q 37.193 66.921 38.699 65.39 A 10.609 10.609 0 0 0 39.04 65.026 A 26.84 26.84 0 0 0 40.324 63.441 Q 41.522 61.829 42.01 60.539 A 6.117 6.117 0 0 0 42.176 60.034 A 9.831 9.831 0 0 0 42.407 58.918 Q 42.697 57.067 42.822 53.524 A 136.826 136.826 0 0 0 42.88 51.33 L 42.88 48.642 Q 42.88 38.167 41.149 32.129 A 25.233 25.233 0 0 0 40.832 31.106 Q 39.92 28.165 39.73 26.349 A 8.475 8.475 0 0 1 39.68 25.474 A 6.66 6.66 0 0 1 39.83 24.019 Q 40.05 23.035 40.595 22.311 A 3.964 3.964 0 0 1 40.96 21.89 A 4.186 4.186 0 0 1 43.977 20.611 A 4.986 4.986 0 0 1 44.032 20.61 Q 45.035 20.61 46.53 21.224 A 13.868 13.868 0 0 1 46.592 21.25 A 7.539 7.539 0 0 1 48.557 22.778 Q 50.017 24.323 51.249 26.967 A 25.718 25.718 0 0 1 51.328 27.138 Q 53.988 33.035 54.245 44.05 A 103.59 103.59 0 0 1 54.272 46.466 A 117.372 117.372 0 0 1 52.976 64.178 A 103.265 103.265 0 0 1 51.968 69.762 Q 50.702 76.409 50.48 80.794 A 34.971 34.971 0 0 0 50.432 82.562 Q 50.432 86.274 50.56 88.962 Q 50.688 91.65 50.688 94.978 A 26.042 26.042 0 0 1 50.657 96.318 Q 50.559 98.201 50.161 98.984 A 1.354 1.354 0 0 1 49.92 99.33 Q 49.28 99.97 47.04 100.738 Q 44.8 101.506 43.648 101.506 L 43.136 101.506 A 0.591 0.591 0 0 1 42.741 101.203 Q 42.501 100.8 42.497 99.881 A 7.247 7.247 0 0 1 42.496 99.842 A 10.96 10.96 0 0 1 42.582 98.413 Q 42.788 96.855 43.49 96.091 A 2.173 2.173 0 0 1 44.416 95.49 A 0.568 0.568 0 0 0 44.698 95.089 Q 45.325 93.412 45.952 84.738 Q 45.952 84.507 46.005 84.119 A 10.602 10.602 0 0 1 46.016 84.034 Q 46.069 83.665 46.078 83.426 A 2.48 2.48 0 0 0 46.08 83.33 Q 46.08 79.362 43.392 77.186 Q 42.879 76.673 42.365 76.503 A 1.61 1.61 0 0 0 41.856 76.418 Q 40.064 76.418 40.064 78.722 A 4.659 4.659 0 0 1 40.026 79.218 Q 39.89 80.383 39.271 83.569 A 289.395 289.395 0 0 1 38.976 85.058 Q 37.888 90.498 37.888 91.522 A 3.649 3.649 0 0 1 37.898 91.691 Q 37.943 93.186 36.608 93.186 Q 36.502 93.292 36.309 93.31 A 0.9 0.9 0 0 1 36.224 93.314 Z" vector-effect="non-scaling-stroke"></path>
  </g>
</svg>

