<svg width="64.128" height="98.304" viewBox="0 0 64.128 98.304" xmlns="http://www.w3.org/2000/svg"><g id="svgGroup" stroke-linecap="round" fill-rule="evenodd" font-size="9pt" stroke="#000" stroke-width="0.25" fill="black" style="stroke:#000;stroke-width:0.25;fill:black"><path d="M 57.216 21.76 L 57.216 23.04 Q 57.088 26.24 57.088 30.08 Q 57.088 32.59 57.259 34.074 A 12.316 12.316 0 0 0 57.344 34.688 A 38.748 38.748 0 0 1 57.431 35.334 Q 57.587 36.574 57.537 36.989 A 1.139 1.139 0 0 1 57.536 36.992 Q 57.484 37.411 57.046 37.744 A 2.346 2.346 0 0 1 56.832 37.888 Q 56.439 38.085 56.196 38.13 A 0.722 0.722 0 0 1 56.064 38.144 Q 54.4 38.144 54.4 34.688 Q 54.4 29.056 53.248 23.68 Q 53.011 22.493 51.012 20.149 A 34.71 34.71 0 0 0 50.688 19.776 Q 48.384 17.152 46.208 15.488 Q 43.052 13.162 40.273 12.346 A 10.263 10.263 0 0 0 37.376 11.904 A 9.74 9.74 0 0 0 36.747 11.923 Q 35.844 11.982 35.456 12.224 Q 34.981 12.521 34.176 13.643 A 19.275 19.275 0 0 0 34.048 13.824 Q 32.384 16.768 31.232 19.456 Q 30.187 21.966 27.945 29.045 A 565.73 565.73 0 0 0 26.88 32.448 Q 23.808 42.368 23.808 43.52 A 0.366 0.366 0 0 0 24.011 43.799 Q 24.72 44.274 27.904 44.672 Q 34.471 45.568 42.663 48.474 A 124.425 124.425 0 0 1 47.488 50.304 A 68.523 68.523 0 0 1 53.039 52.746 Q 58.378 55.409 61.099 58.266 A 11.224 11.224 0 0 1 63.232 61.312 Q 64.128 63.104 64.128 65.792 A 18.627 18.627 0 0 1 63.724 69.569 A 24.246 24.246 0 0 1 62.976 72.32 Q 61.824 75.392 61.824 78.464 Q 61.824 80.64 62.464 84.864 Q 62.642 86.376 62.326 87.208 A 1.677 1.677 0 0 1 61.952 87.808 A 2.852 2.852 0 0 1 61.47 88.201 Q 60.786 88.636 60.032 88.448 Q 59.378 88.339 58.63 83.768 A 86.567 86.567 0 0 1 58.368 82.048 Q 58.112 80.512 57.856 78.912 Q 57.66 77.687 57.539 76.875 A 78.561 78.561 0 0 1 57.472 76.416 L 57.344 75.648 A 0.114 0.114 0 0 0 57.282 75.62 Q 56.888 75.552 54.672 76.752 A 63.378 63.378 0 0 0 53.888 77.184 Q 49.536 79.232 46.208 80.512 A 57.461 57.461 0 0 0 44.464 81.209 Q 42.109 82.199 41.159 82.919 A 3.183 3.183 0 0 0 40.832 83.2 A 5.03 5.03 0 0 1 40.312 83.657 Q 40.021 83.877 39.73 84.017 A 2.788 2.788 0 0 1 39.552 84.096 Q 39.055 84.295 38.828 84.494 A 0.762 0.762 0 0 0 38.72 84.608 A 0.731 0.731 0 0 0 38.619 84.805 Q 38.528 85.064 38.528 85.504 Q 38.528 86.103 38.865 88.383 A 131.036 131.036 0 0 0 38.912 88.704 A 12.443 12.443 0 0 1 39.096 89.988 Q 39.168 90.764 39.168 91.648 Q 39.168 92.226 39.064 93.17 A 30.18 30.18 0 0 1 39.04 93.376 Q 38.912 94.464 38.912 95.36 A 3.412 3.412 0 0 1 38.934 95.737 A 2.807 2.807 0 0 1 38.4 97.408 A 3.032 3.032 0 0 1 38.035 97.836 Q 37.81 98.052 37.571 98.168 A 1.309 1.309 0 0 1 36.992 98.304 A 1.014 1.014 0 0 1 36.599 98.218 Q 36.294 98.089 35.95 97.77 A 4.184 4.184 0 0 1 35.84 97.664 A 0.651 0.651 0 0 1 35.794 97.518 Q 35.712 97.148 35.712 96.128 A 47.823 47.823 0 0 1 35.729 94.831 Q 35.745 94.222 35.779 93.696 A 21.094 21.094 0 0 1 35.84 92.928 L 36.096 88.832 L 34.688 87.296 A 5.529 5.529 0 0 0 30.932 85.527 A 7.572 7.572 0 0 0 30.336 85.504 Q 28.889 85.504 26.132 85.941 A 86.537 86.537 0 0 0 24.192 86.272 Q 19.072 87.296 14.848 87.296 Q 3.84 87.296 3.84 78.464 Q 3.84 77.418 3.926 76.8 A 4.33 4.33 0 0 1 3.968 76.544 Q 4.864 70.4 8.576 57.344 L 9.6 53.248 L 7.808 52.992 A 1.904 1.904 0 0 0 7.546 52.927 Q 7.274 52.878 6.887 52.867 A 8.175 8.175 0 0 0 6.656 52.864 A 1.809 1.809 0 0 0 5.686 53.112 Q 4.967 53.557 4.793 54.798 A 6.349 6.349 0 0 0 4.736 55.68 A 17.225 17.225 0 0 0 4.753 56.458 Q 4.769 56.824 4.803 57.139 A 7.726 7.726 0 0 0 4.864 57.6 Q 4.992 58.624 4.992 59.904 Q 4.992 61.184 4.224 61.824 A 3.397 3.397 0 0 1 3.804 62.141 Q 3.014 62.64 2.304 62.336 A 1.376 1.376 0 0 1 1.993 62.237 A 0.785 0.785 0 0 1 1.536 61.696 Q 1.409 61.185 1.663 59.147 A 44.788 44.788 0 0 1 1.664 59.136 Q 1.78 58.558 1.791 57.562 A 19.427 19.427 0 0 0 1.792 57.344 A 9.283 9.283 0 0 0 1.689 56.018 Q 1.51 54.787 1.024 53.248 Q 0 49.92 0 48.256 Q 0 45.568 2.048 44.544 Q 3.694 43.721 7.075 43.56 A 36.881 36.881 0 0 1 8.832 43.52 L 12.416 43.52 L 12.928 41.728 A 652.017 652.017 0 0 1 15.646 31.837 Q 20.254 15.614 23.104 9.664 Q 26.752 2.048 32.896 0.384 Q 34.304 0 35.712 0 A 16.299 16.299 0 0 1 44.432 2.646 Q 48.696 5.302 52.736 10.624 Q 55.013 13.521 55.993 15.457 A 10.2 10.2 0 0 1 56.384 16.32 A 10.539 10.539 0 0 1 56.907 18.156 Q 57.091 19.092 57.165 20.187 A 23.203 23.203 0 0 1 57.216 21.76 Z M 32.064 63.808 A 146.84 146.84 0 0 0 32.321 62.747 Q 33.024 59.793 33.024 59.136 A 5.87 5.87 0 0 1 33.026 58.995 Q 33.042 58.337 33.21 58.059 A 0.37 0.37 0 0 1 33.536 57.856 A 2.531 2.531 0 0 1 33.998 57.925 Q 35.43 58.231 40.448 59.904 A 207.742 207.742 0 0 1 43.945 61.089 Q 52.48 64.074 52.48 65.152 A 0.79 0.79 0 0 1 52.443 65.383 Q 52.275 65.933 51.342 66.701 A 12.045 12.045 0 0 1 50.688 67.2 Q 48.896 68.48 46.72 69.248 A 61.677 61.677 0 0 1 44.404 70.023 Q 39.522 71.558 31.104 73.536 A 397.27 397.27 0 0 1 29.798 73.841 Q 22.38 75.557 19.374 75.929 A 11.376 11.376 0 0 1 18.048 76.032 Q 17.828 76.032 17.669 75.979 A 0.561 0.561 0 0 1 17.28 75.584 Q 17.174 75.211 17.334 73.993 A 23.986 23.986 0 0 1 17.408 73.472 Q 18.688 63.36 20.48 56.832 A 13.209 13.209 0 0 1 20.579 56.518 Q 20.818 55.788 21.031 55.472 A 0.794 0.794 0 0 1 21.184 55.296 A 0.473 0.473 0 0 1 21.321 55.222 Q 21.64 55.108 22.349 55.234 A 7.36 7.36 0 0 1 22.656 55.296 Q 24.064 55.424 25.728 57.344 Q 28.544 60.672 28.544 65.792 A 6.387 6.387 0 0 1 28.541 66.003 Q 28.521 66.619 28.378 67.031 A 1.544 1.544 0 0 1 28.16 67.456 Q 27.52 68.48 27.52 69.76 A 2.972 2.972 0 0 0 27.527 69.967 Q 27.547 70.243 27.619 70.465 A 1.229 1.229 0 0 0 28.16 71.168 Q 28.258 71.266 28.506 71.289 A 1.808 1.808 0 0 0 28.672 71.296 Q 29.568 71.296 30.336 70.4 Q 30.684 69.994 30.875 69.588 A 2.292 2.292 0 0 0 31.104 68.608 Q 31.104 67.712 32.064 63.808 Z" vector-effect="non-scaling-stroke"/></g></svg>
