<?xml version="1.0" standalone="no"?>
<!DOCTYPE svg PUBLIC "-//W3C//DTD SVG 20010904//EN"
 "http://www.w3.org/TR/2001/REC-SVG-20010904/DTD/svg10.dtd">
<svg version="1.0" xmlns="http://www.w3.org/2000/svg"
 width="220.000000pt" height="297.000000pt" viewBox="0 0 220.000000 297.000000"
 preserveAspectRatio="xMidYMid meet">

<g transform="translate(0.000000,297.000000) scale(0.100000,-0.100000)"
fill="#000000" stroke="none">
<path d="M712 2935 c-17 -19 -39 -35 -50 -35 -24 0 -46 -25 -37 -41 13 -21 74
-39 130 -39 30 0 88 -9 128 -21 81 -23 109 -30 219 -54 43 -10 91 -28 109 -41
18 -13 40 -24 48 -24 9 0 43 -13 76 -29 33 -16 81 -39 108 -50 26 -12 66 -38
90 -59 23 -21 66 -55 95 -75 28 -20 68 -55 88 -77 58 -64 166 -227 229 -344
53 -100 58 -116 67 -200 7 -70 16 -103 37 -141 26 -45 29 -65 39 -205 12 -162
8 -200 -32 -340 -9 -30 -16 -63 -16 -73 0 -33 -68 -177 -101 -214 -17 -20 -48
-73 -69 -117 -25 -56 -57 -103 -103 -153 -36 -39 -70 -80 -76 -90 -17 -34
-178 -132 -276 -168 -60 -23 -79 -25 -230 -25 -178 0 -213 6 -350 55 -49 18
-108 38 -130 44 -24 7 -63 32 -95 61 -30 28 -82 71 -115 96 -33 25 -71 65 -85
88 -14 24 -40 59 -58 80 -35 40 -82 126 -82 150 0 9 -20 75 -44 148 -95 290
-100 338 -63 638 11 91 21 130 49 190 36 79 150 251 190 286 30 28 169 102
233 124 27 10 91 35 140 55 52 22 125 43 173 50 86 13 124 35 137 76 24 75
-128 117 -242 68 -26 -11 -90 -32 -141 -45 -55 -14 -124 -42 -170 -67 -42 -24
-94 -51 -115 -61 -74 -34 -176 -154 -242 -286 -23 -47 -59 -116 -79 -155 -19
-38 -36 -81 -36 -93 0 -13 -9 -58 -20 -101 -26 -104 -31 -408 -7 -521 9 -41
19 -100 23 -130 8 -68 49 -180 86 -239 15 -25 28 -51 28 -58 0 -29 44 -127 71
-158 l29 -33 -6 -109 c-7 -106 -6 -109 19 -139 14 -17 29 -42 32 -57 12 -47
35 -33 35 21 0 38 -7 59 -30 93 -35 51 -44 139 -14 139 9 0 18 -8 21 -19 3
-13 11 -17 24 -14 14 4 30 -5 52 -27 37 -39 117 -91 173 -115 21 -9 50 -27 64
-39 35 -33 64 -46 99 -46 20 0 36 -8 50 -26 18 -23 21 -41 21 -130 0 -58 4
-106 10 -109 17 -11 27 36 18 87 -5 27 -8 70 -6 96 3 41 6 47 26 50 15 2 34
-5 49 -19 21 -21 33 -23 91 -21 64 3 98 -4 134 -30 14 -10 20 -9 36 5 24 22
70 22 95 0 18 -17 20 -16 45 15 22 26 40 36 92 47 36 9 74 19 85 24 11 5 40
17 65 26 105 38 413 355 474 487 46 100 84 203 104 283 11 44 28 98 38 120 25
55 30 316 11 530 -13 149 -17 165 -50 235 -20 41 -40 98 -43 125 -8 64 -31
102 -119 196 -38 42 -113 127 -167 190 -144 171 -169 193 -267 234 -47 21
-124 59 -171 85 -47 26 -96 51 -110 55 -14 4 -62 25 -107 47 -60 29 -101 42
-155 48 -101 12 -210 31 -229 41 -12 6 -24 -1 -47 -26z"/>
<path d="M1381 1870 c-96 -20 -113 -35 -75 -66 14 -12 31 -32 38 -45 9 -18 21
-25 52 -27 38 -3 42 -6 66 -55 14 -29 36 -71 49 -93 23 -42 23 -42 6 -96 -21
-66 -21 -162 -1 -203 l14 -30 -6 40 c-13 73 -4 177 21 257 10 29 29 16 35 -23
l6 -34 6 44 c7 46 29 78 47 67 6 -4 12 -41 13 -84 l1 -77 7 75 c8 84 15 106
36 114 15 6 44 -2 45 -13 0 -3 2 -35 4 -71 2 -36 8 -114 12 -175 l8 -110 10
100 c11 128 8 343 -5 375 -24 55 -194 151 -265 149 -22 -1 -78 -9 -124 -19z"/>
<path d="M782 1846 c-105 -39 -167 -119 -218 -278 -17 -55 -17 -58 3 -103 l20
-47 7 36 c11 60 36 40 36 -29 0 -37 -17 -56 -31 -34 -6 9 -9 -6 -9 -41 0 -37
6 -64 18 -80 10 -16 19 -51 22 -94 3 -41 10 -71 17 -73 21 -7 27 67 15 177
-18 158 -16 177 13 196 36 23 55 5 55 -53 0 -50 32 -159 38 -129 2 10 -1 38
-7 61 -13 52 -14 95 -3 95 13 0 35 -46 37 -77 3 -47 5 -53 13 -53 5 0 9 43 10
95 1 63 7 103 16 118 8 12 17 51 21 85 l7 64 70 51 c76 55 83 75 38 109 -40
29 -115 31 -188 4z"/>
<path d="M1572 1392 c-1 -50 -8 -94 -17 -112 -10 -20 -12 -31 -4 -36 23 -14
30 17 26 122 -2 100 -3 102 -5 26z"/>
<path d="M1514 988 c-60 -82 -136 -145 -188 -155 -23 -4 -138 -7 -256 -5 -213
3 -215 3 -260 30 -25 15 -61 34 -81 43 -20 9 -38 23 -41 31 -3 8 -31 31 -62
53 -54 37 -56 38 -76 20 -11 -10 -20 -28 -20 -41 0 -34 38 -125 64 -154 42
-47 76 -117 76 -159 0 -22 5 -43 10 -46 16 -10 38 13 42 43 2 18 10 28 23 30
30 3 46 -11 54 -49 9 -42 36 -50 45 -13 6 24 10 25 39 18 18 -4 95 -8 172 -9
128 -2 143 0 168 19 22 16 47 22 107 24 l79 4 10 -38 c5 -22 11 -49 13 -62 5
-38 23 -26 29 20 4 24 11 57 17 73 6 17 14 41 17 55 3 14 25 47 50 73 55 59
91 120 100 170 6 32 4 42 -16 63 -38 40 -63 32 -115 -38z"/>
</g>
</svg>
