<?xml version="1.0" encoding="UTF-8" standalone="no"?>
<!-- Created with Inkscape (http://www.inkscape.org/) -->
<svg id="svg2" xmlns="http://www.w3.org/2000/svg" xmlns:rdf="http://www.w3.org/1999/02/22-rdf-syntax-ns#" viewBox="0 0 106.8135 88.218748" xmlns:dc="http://purl.org/dc/elements/1.1/" width="30.145mm" xmlns:cc="http://creativecommons.org/ns#" height="24.897mm" version="1.1">
 <metadata id="metadata7">
  <rdf:RDF>
   <cc:Work rdf:about="">
    <dc:format>image/svg+xml</dc:format>
    <dc:type rdf:resource="http://purl.org/dc/dcmitype/StillImage"/>
    <dc:title/>
   </cc:Work>
  </rdf:RDF>
 </metadata>
 <g id="layer1" transform="translate(538.22 -557.37)">
  <g id="g4167" fill-rule="evenodd">
   <path id="path4155" d="m-499.54 606.01c-0.19852 0.62939 2.3745 2.2876 3.991 1.5197 0.15869-3.6409 3.1481-3.0982 9.4702-3.0936 60.705-6.9536 36.03-4.7125 54.674-6.4397l-0.3788-3.5355c-18.226 2.1163-34.62 4.1156-50.508 6.566-8.8653 1.0132-17.476 1.1145-26.011 1.0102l-6.0609-0.12627c-3.9564-0.60475-15.236-0.16317-23.234 0.37881-1.085 1.0102-0.52556 2.3991 0 3.4093 13.89-3.0883 34.731 0.93479 38.057 0.31119z"/>
   <path id="path4159" d="m-488.76 557.37c1.0714-0.0595 2.1429 0.47619 3.2143 1.6071 0.89997 7.7523 1.8774 15.66 2.3214 22.5 0.14885 3.0952 0.7233 6.1905 0 9.2857 1.1373 16.473 2.1011 38.562 2.1429 43.036l-0.35714 4.8214 0.35714 6.9643-3.3929-0.17858c0.36295-0.75769-0.0748-1.2752-0.53571-1.7857-0.31826-3.869-0.6135-7.7381 0-11.607-0.35714-1.7814-0.17857-5.9821-0.53571-7.3214l0.17857-19.107c-0.32605-7.8882-1.4181-15.01-0.89286-23.75-1.7803-18.256-2.1074-21.01-2.5-24.464z"/>
   <path id="path4163" style="shape-rendering:auto;color:#000000;color-rendering:auto;solid-color:#000000;isolation:auto;block-progression:tb;text-decoration-style:solid;mix-blend-mode:normal;image-rendering:auto;white-space:normal;text-indent:0;text-decoration-line:none;text-transform:none;text-decoration-color:#000000" d="m-486.01 572.2c-4.7067 0.18797-9.3872 1.4484-13.623 3.4004-2.9217 1.3464-5.6117 3.2711-7.8418 5.5801-3.9799 4.1208-7.9271 8.9246-9.6543 14.672-0.68078 2.2653-0.1094 4.397-0.0527 6.0996 0.0629 1.8877 0.10238 3.8428 0.39063 5.8262 0.19747 1.3588 0.45597 2.7703 0.94336 4.1582 0.64495 1.8366 1.5353 3.555 2.5156 5.168 0.93739 1.5423 1.9189 3.3419 3.5508 4.7344 1.8863 1.6095 4.144 2.4606 6.1797 3.252 2.5408 0.98765 5.1891 1.6388 7.8281 2.0898 2.7283 0.46633 5.5313 0.73337 8.3398 0.65039 2.6194-0.0774 5.1101-0.61386 7.5059-1.0293 1.7375-0.30129 3.721-0.43197 5.6856-1.207 2.9424-1.1608 5.6741-2.8668 8.0644-4.8906 1.7086-1.4466 2.8888-3.2173 4.0918-4.7266 1.2409-1.5568 2.5071-3.1581 3.6172-4.9141 1.0442-1.6517 2.1787-3.4042 2.9043-5.4336 0.93702-2.6208 1.3532-5.3625 1.5859-8.0274 0.18378-2.1041 0.38717-4.4079-0.15625-6.7226-0.43724-1.8624-1.353-3.5144-2.334-4.9746-1.5982-2.3788-3.5618-4.5629-5.8281-6.3555-2.6697-2.1117-5.7037-3.887-8.9707-5.0078-2.6737-0.91726-5.3497-0.82174-7.666-1.1914-2.0892-0.33344-4.4153-1.2566-7.0762-1.1504zm0.10351 2.5977c1.9439-0.0776 4.1009 0.72823 6.5625 1.1211 2.645 0.42213 5.154 0.36899 7.2324 1.082 2.9355 1.0071 5.728 2.6316 8.2012 4.5879 2.0328 1.6079 3.8266 3.5945 5.2852 5.7656 0.88794 1.3217 1.6303 2.7189 1.959 4.1191 0.41874 1.7837 0.28018 3.8126 0.0977 5.9023-0.22261 2.5486-0.62049 5.0719-1.4453 7.3789-0.59305 1.6588-1.6035 3.2609-2.6523 4.9199-1.0132 1.6026-2.2174 3.1314-3.4531 4.6816-1.2897 1.618-2.3948 3.2277-3.7383 4.3652-2.1932 1.8569-4.6956 3.4099-7.3398 4.4531-1.4756 0.58214-3.2676 0.73586-5.1738 1.0664-2.4604 0.42662-4.8335 0.92204-7.1406 0.99023-2.593 0.0766-5.2239-0.16917-7.8223-0.61328-2.5135-0.42961-4.9929-1.043-7.3242-1.9492-2.0351-0.79109-3.9994-1.5832-5.4356-2.8086-1.1601-0.98986-2.0487-2.5114-3.0176-4.1055-0.91638-1.5077-1.7182-3.0707-2.2832-4.6797-0.39899-1.1362-0.63693-2.3832-0.82422-3.6719-0.25777-1.7737-0.30174-3.6304-0.36523-5.5371-0.0693-2.0833-0.46413-3.9032-0.0547-5.2656 1.5251-5.0748 5.1648-9.606 9.0352-13.613 2.0052-2.0761 4.4434-3.8203 7.0586-5.0254 3.9599-1.8248 8.3285-2.9919 12.639-3.1641z"/>
  </g>
 </g>
</svg>
